<svg version="1" xmlns="http://www.w3.org/2000/svg" width="992" height="992" viewBox="0 0 744.000000 744.000000"><path d="M383.5 61.6c-4.4.8-12.5 3-18 4.8-5.5 1.9-17 5.3-25.5 7.6-27.4 7.4-45.3 15.2-59.9 26-34 25.3-53 64.4-65.5 135-8.3 46.8-12.4 63.7-18.3 75.5-1.4 2.7-6.3 9.3-10.8 14.5-35.7 41.3-49.3 65.9-55.4 99.8-3.4 18.7-4.4 38.1-3.7 69.9.3 16.1 1.1 30.4 1.6 31.8 1.2 3.2 4 3.2 7.9-.1 4.4-3.7 5-5.2 6.6-15.9 2.9-18.8 8-35.5 16.5-53 9.8-20.4 22-37.4 38.1-53.4 13.4-13.1 20.9-18.3 20.9-14.2 0 .4-5.1 5.9-11.2 12.2-41.4 42-62.6 93.1-57.9 138.9 1.5 14 3.5 21.9 8.2 31.7 5.2 10.9 13 20.5 28 34.2 15.4 14.2 38.9 37.8 38.9 39.1 0 .6-2.2 1-5 1-10.2 0-21.3 3.7-24.4 8.2-2.3 3.3-2.1 10.9.5 14.1 3.2 4.2 8.1 5 22.2 3.6 14.8-1.5 18.2-1 23.1 3.7 9 8.5 18.2 8.6 30.1.4 7.5-5.1 14.7-7.1 25.5-7.1 10.3 0 16 1.3 26 5.7 5.4 2.3 7.9 2.8 14.7 2.9 7.2 0 8.5-.3 10.5-2.2 2.1-2.1 2.1-2.5.9-7.3-1.2-4.6-1.1-5.3.5-7.2 8.7-9.8 54.7-12.1 67.6-3.4 3.2 2.1 3.3 2.5 3.8 10.2.3 4.5 1.1 8.8 1.8 9.7 3.2 3.8 10.4 2.9 23.6-2.9 15.7-6.9 27.8-5.7 53.6 5.1 5 2.2 8.6 2.9 15.5 3.2 10.9.5 13.5-.6 15-6.2 2-6.8 3.9-7.5 24.1-8.9 17.8-1.2 21.6-2.1 22.8-5.2 1.3-3.5.6-8.1-1.6-10.1-3.2-2.9-8.6-4.2-23.3-5.3-14-1.1-19.6-2.3-21.5-4.5-1.5-1.9-.6-3.3 11.1-17 36.8-43.3 55.1-81.4 55.2-115 .1-13.6-1.5-22.7-6.3-37.5-8.7-26.8-25.5-52.1-49.4-74.5-9.4-8.9-11.2-11.5-7.9-11.5 2.7 0 34.1 32.5 41.5 43 12 16.8 19.8 35.7 23.2 56.1 1.4 8.1 3.5 33.5 3.6 43.1 0 2.9 2.3 5.8 4.7 5.8 2.7 0 7.1-5.9 9.5-12.8 2.2-6.5 2.3-7.8 2.2-38.2 0-39.2-1.6-53.1-8.6-75-6.1-19-15.8-36.5-27.4-48.9-3.2-3.5-15.1-15-26.4-25.4-11.3-10.4-22.4-21.5-24.8-24.6-8.4-11.1-12.2-25.3-14.7-54.4-4-46.1-11.8-77.5-26.8-107.3-11.2-22.4-28.4-42.2-49.2-56.8-14.7-10.4-24.4-14.9-40.1-18.8-7.1-1.7-13-3.3-13.2-3.4-1-.7 2.2-4.4 5.3-6.3 3.7-2.2 4.6-4.2 1.8-4-1 0-5.4.7-9.8 1.5zm45 76.5c18.7 7 31.3 30.2 37.4 68.9 2.4 15.4 2.9 20.4 4.1 40.1.5 9.6 1.4 17 2.3 19.2.9 1.9 4.5 7.9 8.2 13.3 11 16.1 14.9 25.6 14.9 36.4-.1 13.1-8.3 23.2-29.2 35.8-11.5 6.9-17.2 11.8-17.2 14.6 0 2.4 4 6.5 9.8 10 3.1 1.9 14.5 8.1 25.2 13.8 29.8 15.9 41.6 24.4 54.8 39.3 11.3 12.7 23.2 35.2 28.6 53.9 7.3 25.1 5.6 50.1-5.3 76.1-5.2 12.5-13.9 28.7-20.9 38.9-3 4.5-7.5 12.6-9.9 18-4.6 10.6-8 15.8-11.6 17.8-1.5.9-6.6 1.3-15.2 1.3h-13l-11.5 5.2c-16.3 7.4-22 8.7-35.5 8-8.1-.4-16.3-1.8-31-5.3-16.2-3.8-21.9-4.7-30-4.8-9.6-.1-10.6.1-27 5.6-21.2 7-26.6 8.2-38.5 8.1-13.2 0-23.1-1.9-32.5-6.2l-8-3.6-15.4.3c-17.7.3-19.5-.3-20.6-6.6-1.5-9.4-9.6-18.8-29.7-35-20-16.1-27.9-24.8-33.8-37.3-8.4-17.9-8-40.4 1-71.4 9.1-31 21.3-52.7 40.2-71.6 4.4-4.4 14.9-13.6 23.3-20.5 8.5-6.8 18.2-15.1 21.5-18.2 5.2-5 6-6.3 6-9.4 0-4.3-1-5.2-8.5-7.8-20.8-7.2-32.4-25.5-31.3-49.5.5-10 .9-11.2 10.2-25.9 8.4-13.3 9.6-18.3 10.7-42.1 2.3-49.2 9.2-73.7 25.2-89.7 9.2-9.2 23-13.5 36.9-11.6 23.8 3.2 39.3 26.6 45.2 67.8.8 5.8 1.6 13.4 1.8 16.9l.3 6.4-13.5 8.1c-17.5 10.5-21.8 13.5-26.3 18.5-7.7 8.5-3.5 15.8 11.9 21 3.4 1.1 11.2 4.5 17.4 7.6 9.4 4.6 12.2 5.5 16.6 5.5 6.3 0 9.5-1.1 14.3-4.9 2-1.6 7.9-5.2 13.1-8.1 11.2-6 14-8.4 14-12 0-6.2-11.2-18.3-26.5-28.5-4.4-3-9.3-5.9-10.9-6.5l-2.9-1.1.7-14.7c1.5-30.5 5-48 12.9-64.1 4.3-8.8 12.6-17.2 19.7-19.9 7.6-2.9 19.9-3 27.5-.1zm-56.5 112c5.4 3.3 14.8 11.9 17.2 15.6 3 5 1.7 6.9-10.7 14.7-12 7.7-13.8 8-21.4 3.1-2.3-1.4-7.6-3.9-11.8-5.5-10.5-4.1-14.5-7.9-12.3-12.1 1.2-2.1 13.7-10.7 22.4-15.3 6-3.2 11.8-3.4 16.6-.5z"/><path d="M407.1 200.6c-4.6 3.9-6.4 11.2-5.9 24.3.4 11 1.6 15 6.1 19.8 7.9 8.7 19.7-9.9 19.7-30.8 0-10.6-.9-11.4-6-5.6-5 5.7-7.5 6.2-6.5 1.4.4-1.7 1.6-4.7 2.7-6.6 1.5-2.7 1.7-3.6.6-4.2-2.6-1.7-7.6-.9-10.7 1.7zM305.4 208.4c-4.6 2-6.9 8.6-6.9 20.1 0 8 .4 9.7 3 15 3 6 8 10.5 11.6 10.5 2.7 0 7.7-5.6 9.1-10.3 1.6-5.3 1.5-22.3-.1-26.2l-1.2-2.9-2.5 4.4c-4.2 7.3-6.4 7.5-6.4.7 0-2.4.8-5.6 1.9-7.4l2-3.1-3.1-1.1c-3.8-1.3-3.6-1.3-7.4.3z"/></svg>